<svg aria-hidden="true" style="position: absolute; width: 0; height: 0; overflow: hidden;" version="1.1" xmlns="http://www.w3.org/2000/svg" xmlns:xlink="http://www.w3.org/1999/xlink">
<defs>
<symbol id="check" viewBox="0 0 32 32">
<path fill="#fbfbfb" style="fill: var(--color1, #fbfbfb)" d="M8 13.333l-2.667 2.667 8 8 13.333-13.333-2.667-2.667-10.667 10.667-5.333-5.333z"></path>
</symbol>
<symbol id="rotate-arrow" viewBox="0 0 28 32">
<path fill="#fbfbfb" style="fill: var(--color1, #fbfbfb)" d="M24.137 3.149c-0.145-1.029-1.096-1.747-2.126-1.602l-16.776 2.358c-1.029 0.145-1.747 1.097-1.602 2.126s1.097 1.747 2.126 1.602l14.912-2.096 2.096 14.912c0.145 1.029 1.096 1.747 2.126 1.602s1.747-1.096 1.602-2.126l-2.358-16.776zM1.882 30.471l1.503 1.133 20.391-27.060-3.007-2.266-20.391 27.060 1.503 1.133z"></path>
</symbol>
<symbol id="close" viewBox="0 0 32 32">
<path d="M7.057 7.057c0.521-0.521 1.365-0.521 1.886 0l7.057 7.057 7.057-7.057c0.521-0.521 1.365-0.521 1.886 0s0.521 1.365 0 1.886l-7.057 7.057 7.057 7.057c0.521 0.521 0.521 1.365 0 1.886s-1.365 0.521-1.886 0l-7.057-7.057-7.057 7.057c-0.521 0.521-1.365 0.521-1.886 0s-0.521-1.365 0-1.886l7.057-7.057-7.057-7.057c-0.521-0.521-0.521-1.365 0-1.886z"></path>
</symbol>
<symbol id="figma" viewBox="0 0 22 32">
<path fill="#1abcfe" style="fill: var(--color11, #1abcfe)" d="M11 16c0-1.415 0.562-2.771 1.562-3.771s2.357-1.562 3.771-1.562c1.414 0 2.771 0.562 3.771 1.562s1.562 2.357 1.562 3.771-0.562 2.771-1.562 3.771c-1 1-2.357 1.562-3.771 1.562s-2.771-0.562-3.771-1.562-1.562-2.357-1.562-3.771z"></path>
<path fill="#0acf83" style="fill: var(--color12, #0acf83)" d="M0.333 26.667c0-1.415 0.562-2.771 1.562-3.771s2.357-1.562 3.771-1.562h5.333v5.333c0 1.415-0.562 2.771-1.562 3.771s-2.357 1.562-3.771 1.562c-1.415 0-2.771-0.562-3.771-1.562s-1.562-2.357-1.562-3.771z"></path>
<path fill="#ff7262" style="fill: var(--color13, #ff7262)" d="M11 0v10.667h5.333c1.414 0 2.771-0.562 3.771-1.562s1.562-2.357 1.562-3.771c0-1.415-0.562-2.771-1.562-3.771s-2.357-1.562-3.771-1.562h-5.333z"></path>
<path fill="#f24e1e" style="fill: var(--color14, #f24e1e)" d="M0.333 5.333c0 1.414 0.562 2.771 1.562 3.771s2.357 1.562 3.771 1.562h5.333v-10.667h-5.333c-1.415 0-2.771 0.562-3.771 1.562s-1.562 2.357-1.562 3.771z"></path>
<path fill="#a259ff" style="fill: var(--color15, #a259ff)" d="M0.333 16c0 1.414 0.562 2.771 1.562 3.771s2.357 1.562 3.771 1.562h5.333v-10.667h-5.333c-1.415 0-2.771 0.562-3.771 1.562s-1.562 2.357-1.562 3.771z"></path>
</symbol>
<symbol id="link" viewBox="0 0 32 32">
<path fill="none" stroke="#d1d5db" style="stroke: var(--color1, #d1d5db)" stroke-linejoin="round" stroke-linecap="round" stroke-miterlimit="4" stroke-width="2.6667" d="M24 17.333v8c0 0.707-0.281 1.385-0.781 1.886s-1.178 0.781-1.886 0.781h-14.667c-0.707 0-1.386-0.281-1.886-0.781s-0.781-1.178-0.781-1.886v-14.667c0-0.707 0.281-1.386 0.781-1.886s1.178-0.781 1.886-0.781h8"></path>
<path fill="none" stroke="#d1d5db" style="stroke: var(--color1, #d1d5db)" stroke-linejoin="round" stroke-linecap="round" stroke-miterlimit="4" stroke-width="2.6667" d="M20 4h8v8"></path>
<path fill="none" stroke="#d1d5db" style="stroke: var(--color1, #d1d5db)" stroke-linejoin="round" stroke-linecap="round" stroke-miterlimit="4" stroke-width="2.6667" d="M13.333 18.667l14.667-14.667"></path>
</symbol>
<symbol id="phone" viewBox="0 0 32 32">
<path fill="none" stroke="#d1d5db" style="stroke: var(--color1, #d1d5db)" stroke-linejoin="round" stroke-linecap="round" stroke-miterlimit="4" stroke-width="2.6667" d="M29.333 22.56v4c0.002 0.371-0.075 0.739-0.223 1.079s-0.367 0.646-0.641 0.897c-0.274 0.251-0.597 0.442-0.948 0.561s-0.725 0.163-1.094 0.13c-4.103-0.446-8.044-1.848-11.507-4.093-3.222-2.047-5.953-4.778-8-8-2.253-3.478-3.656-7.439-4.093-11.56-0.033-0.369 0.010-0.74 0.129-1.091s0.308-0.673 0.558-0.947c0.25-0.273 0.553-0.492 0.892-0.641s0.705-0.227 1.075-0.227h4c0.647-0.006 1.274 0.223 1.765 0.645s0.811 1.008 0.902 1.649c0.169 1.28 0.482 2.537 0.933 3.747 0.179 0.477 0.218 0.996 0.112 1.495s-0.353 0.956-0.712 1.319l-1.693 1.693c1.898 3.338 4.662 6.102 8 8l1.693-1.693c0.363-0.359 0.82-0.606 1.319-0.712s1.017-0.067 1.494 0.112c1.21 0.451 2.467 0.765 3.747 0.933 0.648 0.091 1.239 0.418 1.662 0.917s0.647 1.136 0.631 1.79z"></path>
</symbol>
<symbol id="copy" viewBox="0 0 33 32">
<path fill="none" stroke="#d1d5db" style="stroke: var(--color1, #d1d5db)" stroke-linejoin="round" stroke-linecap="round" stroke-miterlimit="4" stroke-width="2.6667" d="M27.333 10.667h-13.333c-1.473 0-2.667 1.194-2.667 2.667v13.333c0 1.473 1.194 2.667 2.667 2.667h13.333c1.473 0 2.667-1.194 2.667-2.667v-13.333c0-1.473-1.194-2.667-2.667-2.667z"></path>
<path fill="none" stroke="#d1d5db" style="stroke: var(--color1, #d1d5db)" stroke-linejoin="round" stroke-linecap="round" stroke-miterlimit="4" stroke-width="2.6667" d="M6 21.333c-1.467 0-2.667-1.2-2.667-2.667v-13.333c0-1.467 1.2-2.667 2.667-2.667h13.333c1.467 0 2.667 1.2 2.667 2.667"></path>
</symbol>
<symbol id="ukraine" viewBox="0 0 32 32">
<path fill="#ffda44" style="fill: var(--color1, #ffda44)" d="M16 32c8.837 0 16-7.163 16-16s-7.163-16-16-16c-8.837 0-16 7.163-16 16s7.163 16 16 16z"></path>
<path fill="#338af3" style="fill: var(--color2, #338af3)" d="M0 16c0-8.836 7.163-16 16-16s16 7.163 16 16z"></path>
</symbol>
<symbol id="login" viewBox="0 0 32 32">
<path fill="none" stroke="#9fb7ce" style="stroke: var(--color1, #9fb7ce)" stroke-linejoin="round" stroke-linecap="round" stroke-miterlimit="4" stroke-width="3.2" d="M20 4h1.6c2.24 0 3.36 0 4.216 0.436 0.753 0.383 1.364 0.995 1.748 1.748 0.436 0.856 0.436 1.976 0.436 4.216v11.2c0 2.24 0 3.36-0.436 4.216-0.384 0.753-0.995 1.364-1.748 1.748-0.856 0.436-1.976 0.436-4.216 0.436h-1.6"></path>
<path fill="none" stroke="#9fb7ce" style="stroke: var(--color1, #9fb7ce)" stroke-linejoin="round" stroke-linecap="round" stroke-miterlimit="4" stroke-width="3.2" d="M13.333 9.333l6.667 6.667M20 16l-6.667 6.667M20 16h-16"></path>
</symbol>
<symbol id="book" viewBox="0 0 39 32">
<path d="M3.99 24.392l0.098-17.337h-1.957v22.059c2.69-0.695 5.389-1.136 8.107-1.155 2.51-0.016 5.019 0.335 7.535 1.187-1.563-1.266-3.305-2.197-5.164-2.803-2.342-0.764-4.874-1.016-7.469-0.796-0.587 0.047-1.099-0.388-1.149-0.972-0.006-0.063-0.006-0.123 0-0.183v0zM32.71 6.149c-0.006-0.051-0.013-0.104-0.013-0.161 0-0.054 0.003-0.107 0.013-0.161v-3.51c-2.462-0.234-5 0.038-7.216 0.878-2.071 0.786-3.858 2.077-5.019 3.927v19.995c1.806-1.206 3.652-2.197 5.55-2.873 2.162-0.77 4.385-1.136 6.686-0.953v-17.141zM34.841 4.925h2.885c0.587 0 1.064 0.477 1.064 1.064v24.515c0 0.587-0.477 1.064-1.064 1.064-0.12 0-0.237-0.019-0.344-0.057-2.967-0.849-5.916-1.414-8.836-1.433-2.847-0.019-5.692 0.483-8.549 1.743-0.177 0.117-0.388 0.18-0.606 0.177-0.215 0.003-0.426-0.060-0.606-0.177-2.854-1.263-5.701-1.761-8.549-1.743-2.92 0.019-5.865 0.584-8.836 1.433-0.107 0.038-0.224 0.057-0.344 0.057-0.581 0.003-1.058-0.474-1.058-1.061v-24.518c0-0.587 0.477-1.064 1.064-1.064h3.034l0.019-3.554c0.003-0.511 0.363-0.934 0.846-1.035v0c2.8-0.584 6.203-0.439 9.186 0.704 2.061 0.789 3.933 2.049 5.3 3.867 1.38-1.695 3.223-2.914 5.297-3.7 2.835-1.076 6.105-1.335 9.183-0.884 0.53 0.076 0.909 0.533 0.909 1.051v0 3.551h0.003zM21.507 28.985c2.352-0.739 4.7-1.042 7.049-1.029 2.718 0.016 5.417 0.461 8.107 1.155v-22.056h-1.821v17.432c0 0.587-0.477 1.064-1.064 1.064-0.085 0-0.167-0.009-0.246-0.028-2.33-0.366-4.587-0.063-6.79 0.723-1.774 0.634-3.517 1.582-5.234 2.74v0zM18.347 26.911v-19.821c-1.114-1.967-2.917-3.283-4.953-4.063-2.308-0.884-4.899-1.083-7.16-0.761l-0.12 21.090c2.465-0.088 4.877 0.224 7.147 0.966 1.806 0.587 3.517 1.449 5.086 2.589v0z"></path>
</symbol>
<symbol id="heart" viewBox="0 0 32 32">
<path d="M15.982 30.195l-13.313-13.313c-1.608-1.608-2.493-3.745-2.493-6.019s0.885-4.411 2.494-6.019c1.608-1.608 3.745-2.493 6.019-2.493s4.411 0.885 6.019 2.493l1.274 1.275 1.275-1.275c1.607-1.608 3.745-2.493 6.019-2.493s4.412 0.885 6.019 2.494v0c0 0 0 0 0 0 1.608 1.607 2.493 3.745 2.493 6.019s-0.886 4.412-2.494 6.019l-13.313 13.313zM8.688 5.161c-1.523 0-2.955 0.593-4.032 1.67s-1.67 2.509-1.67 4.032 0.593 2.955 1.67 4.032l11.326 11.326 11.326-11.326c1.078-1.077 1.671-2.509 1.671-4.032s-0.593-2.955-1.67-4.032v0c-1.077-1.077-2.509-1.67-4.032-1.67s-2.955 0.593-4.032 1.67l-3.262 3.262-3.262-3.262c-1.077-1.077-2.509-1.67-4.032-1.67z"></path>
</symbol>
<symbol id="filled-heart" viewBox="0 0 32 32">
<path fill="#9fb7ce" style="fill: var(--color1, #9fb7ce); stroke: var(--color1, #9fb7ce)" stroke="#9fb7ce" stroke-linejoin="round" stroke-linecap="round" stroke-miterlimit="4" stroke-width="1.2308" d="M27.787 6.147c-0.681-0.681-1.49-1.222-2.379-1.591s-1.844-0.559-2.807-0.559-1.917 0.19-2.807 0.559c-0.89 0.369-1.699 0.909-2.38 1.591l-1.413 1.413-1.413-1.413c-1.376-1.376-3.241-2.148-5.187-2.148s-3.811 0.773-5.187 2.148c-1.376 1.376-2.148 3.241-2.148 5.187s0.773 3.811 2.148 5.187l11.787 11.787 11.787-11.787c0.681-0.681 1.222-1.49 1.591-2.379s0.559-1.844 0.559-2.807-0.19-1.917-0.559-2.807c-0.369-0.89-0.909-1.699-1.591-2.38z"></path>
</symbol>
<symbol id="star" viewBox="0 0 32 32">
<path fill="#ffc531" style="fill: var(--color1, #ffc531); stroke: var(--color1, #ffc531)" stroke="#ffc531" stroke-linejoin="miter" stroke-linecap="butt" stroke-miterlimit="4" stroke-width="2.4" d="M19.6 9.395c0.318 0.603 0.898 1.024 1.57 1.141l7.6 1.313-5.375 5.535c-0.416 0.428-0.637 1.003-0.621 1.592l0.022 0.254 1.098 7.635-6.922-3.402-0.234-0.1c-0.476-0.169-0.996-0.169-1.473 0l-0.234 0.1-6.924 3.402 1.1-7.635c0.085-0.591-0.074-1.187-0.434-1.654l-0.166-0.191-5.377-5.535 7.602-1.313c0.588-0.102 1.106-0.437 1.439-0.924l0.131-0.217 3.6-6.822 3.6 6.822z"></path>
</symbol>
<symbol id="online" viewBox="0 0 32 32">
<path fill="#fff" style="fill: var(--color1, #fff)" d="M32 16c0 8.837-7.163 16-16 16s-16-7.163-16-16c0-8.837 7.163-16 16-16s16 7.163 16 16z"></path>
<path fill="#38cd3e" style="fill: var(--color2, #38cd3e)" d="M26.667 16c0 5.891-4.776 10.667-10.667 10.667s-10.667-4.776-10.667-10.667c0-5.891 4.776-10.667 10.667-10.667s10.667 4.776 10.667 10.667z"></path>
</symbol>
<symbol id="down" viewBox="0 0 32 32">
<path d="M31.237 10.605l-15.237 15.235-15.236-15.234c-1.017-1.019-1.017-2.667 0-3.683 1.017-1.017 2.665-1.016 3.683 0l11.555 11.553 11.557-11.554c1.017-1.016 2.665-1.016 3.681 0 1.015 1.017 1.015 2.665-0.002 3.683z"></path>
</symbol>
<symbol id="icon-eye" viewBox="0 0 24 24" fill="none" stroke="currentColor" stroke-width="2" stroke-linecap="round" stroke-linejoin="round">
  <path d="M2 12s3-7 10-7 10 7 10 7-3 7-10 7-10-7-10-7Z"></path>
  <circle cx="12" cy="12" r="3"></circle>
</symbol>
<symbol id="icon-eye-off" viewBox="0 0 24 24" fill="none" stroke="currentColor" stroke-width="2" stroke-linecap="round" stroke-linejoin="round">
  <path d="M9.88 9.88a3 3 0 1 0 4.24 4.24"></path>
  <path d="M10.73 5.08A10.43 10.43 0 0 1 12 5c7 0 10 7 10 7a13.16 13.16 0 0 1-1.67 2.68"></path>
  <path d="M6.61 6.61A13.526 13.526 0 0 0 2 12s3 7 10 7a9.74 9.74 0 0 0 5.39-1.61"></path>
  <line x1="2" y1="2" x2="22" y2="22"></line>
</symbol>
<symbol id="map" viewBox="0 0 32 32">
<path d="M16.114-0.011c-6.559 0-12.114 5.587-12.114 12.204 0 6.93 6.439 14.017 10.77 18.998 0.017 0.020 0.717 0.797 1.579 0.797h0.076c0.863 0 1.558-0.777 1.575-0.797 4.064-4.672 10-12.377 10-18.998 0-6.618-4.333-12.204-11.886-12.204zM16.515 29.849c-0.035 0.035-0.086 0.074-0.131 0.107-0.046-0.032-0.096-0.072-0.133-0.107l-0.523-0.602c-4.106-4.71-9.729-11.161-9.729-17.055 0-5.532 4.632-10.205 10.114-10.205 6.829 0 9.886 5.125 9.886 10.205 0 4.474-3.192 10.416-9.485 17.657zM16.035 6.044c-3.313 0-6 2.686-6 6s2.687 6 6 6 6-2.687 6-6-2.686-6-6-6zM16.035 16.044c-2.206 0-4.046-1.838-4.046-4.044s1.794-4 4-4c2.207 0 4 1.794 4 4 0.001 2.206-1.747 4.044-3.954 4.044z"></path>
</symbol>
</defs>
</svg>

